<?xml version="1.0" encoding="UTF-8" standalone="no"?>
<!-- Created with Inkscape (http://www.inkscape.org/) -->

<svg
   width="157.65065mm"
   height="83.942482mm"
   viewBox="0 0 157.65065 83.942482"
   version="1.1"
   id="svg5"
   xml:space="preserve"
   inkscape:version="1.2.2 (b0a8486541, 2022-12-01)"
   sodipodi:docname="filmvisarna-logo-purple.svg"
   inkscape:export-filename="filmvisarna-logo-purple.svg"
   inkscape:export-xdpi="96"
   inkscape:export-ydpi="96"
   xmlns:inkscape="http://www.inkscape.org/namespaces/inkscape"
   xmlns:sodipodi="http://sodipodi.sourceforge.net/DTD/sodipodi-0.dtd"
   xmlns="http://www.w3.org/2000/svg"
   xmlns:svg="http://www.w3.org/2000/svg"><sodipodi:namedview
     id="namedview7"
     pagecolor="#ffffff"
     bordercolor="#000000"
     borderopacity="0.25"
     inkscape:showpageshadow="2"
     inkscape:pageopacity="0.0"
     inkscape:pagecheckerboard="0"
     inkscape:deskcolor="#d1d1d1"
     inkscape:document-units="mm"
     showgrid="false"
     inkscape:zoom="0.76969697"
     inkscape:cx="390.41339"
     inkscape:cy="561.25984"
     inkscape:window-width="897"
     inkscape:window-height="1046"
     inkscape:window-x="1018"
     inkscape:window-y="29"
     inkscape:window-maximized="1"
     inkscape:current-layer="layer1" /><defs
     id="defs2" /><g
     inkscape:label="Layer 1"
     inkscape:groupmode="layer"
     id="layer1"
     transform="translate(-33.613507,-60.869513)"><path
       style="fill:#090a09;fill-opacity:1;stroke-width:0.264583"
       d="m 33.623829,104.04803 c -0.0382,-22.373837 0.03298,-41.011397 0.158182,-41.416817 0.146188,-0.47338 0.601614,-0.92791 1.272829,-1.27034 1.041817,-0.5315 1.293527,-0.53296 78.01557,-0.4535 l 76.97039,0.0797 0.60262,0.60303 0.60262,0.60304 0.017,37.36467 c 0.009,20.550577 -0.0366,38.871667 -0.10212,40.713547 l -0.11911,3.34887 -3.33746,0.17396 c -1.83561,0.0957 -4.76622,0.28525 -6.51247,0.42129 -1.74625,0.13603 -7.18043,0.3259 -12.07596,0.42192 l -8.90095,0.17459 -0.20036,-3.151 c -0.15528,-2.44206 -0.1016,-22.31092 0.14236,-52.694237 2.7e-4,-0.0364 3.61736,-0.0662 8.03793,-0.0662 7.15155,0 8.07742,-0.0482 8.40052,-0.43728 0.55226,-0.66503 0.64438,-4.51487 0.13708,-5.729 -0.40738,-0.975 -0.41247,-0.97747 -2.01772,-0.97747 -1.05943,0 -1.64238,-0.113 -1.7061,-0.33072 -0.0532,-0.18191 -0.54118,-1.72163 -1.08431,-3.42162 -0.55707,-1.74363 -0.93157,-3.38354 -0.85916,-3.7623 0.0706,-0.36928 0.0522,-0.62437 -0.0409,-0.56685 -0.0931,0.0575 -0.44277,-0.60092 -0.77713,-1.4632 -0.43623,-1.125 -0.92886,-1.83076 -1.74434,-2.49898 l -1.13641,-0.93121 -5.88726,0.0713 -5.88725,0.0713 -0.57307,1.98438 -0.57308,1.98437 0.75964,1.43286 c 0.4178,0.78807 1.21119,2.69307 1.76308,4.23333 0.55189,1.54026 1.09182,3.01044 1.19983,3.26706 0.1857,0.44117 -0.29141,0.46278 -8.76297,0.39687 l -8.95936,-0.0697 -0.52916,-1.08036 c -0.7255,-1.48119 -1.06665,-2.2845 -2.91215,-6.85714 l -1.60177,-3.96875 -1.43568,-0.7276 -1.43567,-0.72761 h -6.91275 c -3.80201,0 -6.98212,0.0694 -7.06691,0.15417 -0.15331,0.15331 1.58774,5.22103 3.35577,9.76771 0.50929,1.30969 0.92993,2.59123 0.93476,2.84788 0.008,0.43787 -0.52536,0.46234 -8.65324,0.39688 l -8.662,-0.0698 -1.79053,-3.17338 c -0.98479,-1.74532 -2.12781,-3.65032 -2.54004,-4.23329 -0.41223,-0.58297 -0.93285,-1.41714 -1.15693,-1.8537 -0.224081,-0.43656 -0.793708,-1.48882 -1.265839,-2.33835 l -0.858416,-1.5446 -2.811807,0.21945 c -3.445364,0.2689 -4.482846,0.26611 -7.777607,-0.021 -2.307328,-0.20104 -2.640785,-0.1743 -3.108854,0.24929 -1.057778,0.95728 -0.732713,2.26576 1.952016,7.85742 0.958181,1.99567 1.818336,3.93206 1.911459,4.30309 l 0.169312,0.67459 -8.785807,-0.0697 -8.785807,-0.0697 -3.032982,-5.95312 c -1.668093,-3.27422 -3.234434,-6.07219 -3.480711,-6.21771 -0.246277,-0.14552 -0.532733,-0.38364 -0.636571,-0.52916 -0.171427,-0.24024 -14.206427,-0.23152 -14.456789,0.009 -0.05143,0.0494 0.103613,1.06261 0.344531,2.25159 0.665774,3.28573 1.562085,5.19765 3.34605,7.13744 0.859262,0.93432 1.562295,1.76968 1.562295,1.85637 0,0.16525 -2.628621,1.31331 -3.006978,1.31331 -0.120244,0 -0.578301,0.25612 -1.017905,0.56914 -0.996255,0.7094 -1.782505,2.39387 -1.790139,3.83522 -0.0049,0.92818 0.138173,1.22349 0.929437,1.91823 l 0.935248,0.82116 h 5.547044 5.547043 V 116.8142 144.72775 H 47.5806 33.693286 Z m 39.878348,19.03803 c -0.190815,-20.57594 -0.0937,-33.514197 0.254172,-33.862067 0.08771,-0.0877 16.885488,-0.21186 37.328401,-0.27591 l 37.16894,-0.11643 -0.0674,27.874797 -0.0674,27.87479 -37.20816,0.0613 -37.208149,0.0613 z"
       id="path928"
       inkscape:export-filename="../Grupp1-Filmvisarna/public/logo_img/svg/filmvisarna-logo-light.svg"
       inkscape:export-xdpi="96"
       inkscape:export-ydpi="96" /></g></svg>
