<?xml version="1.0" encoding="UTF-8" standalone="no"?>
<!-- Created with Inkscape (http://www.inkscape.org/) -->

<svg
   width="210mm"
   height="297mm"
   viewBox="0 0 210 297"
   version="1.1"
   id="svg5"
   xml:space="preserve"
   inkscape:version="1.2.2 (b0a8486541, 2022-12-01)"
   sodipodi:docname="filmvisarna-logo-purple.svg"
   xmlns:inkscape="http://www.inkscape.org/namespaces/inkscape"
   xmlns:sodipodi="http://sodipodi.sourceforge.net/DTD/sodipodi-0.dtd"
   xmlns="http://www.w3.org/2000/svg"
   xmlns:svg="http://www.w3.org/2000/svg"><sodipodi:namedview
     id="namedview7"
     pagecolor="#ffffff"
     bordercolor="#000000"
     borderopacity="0.25"
     inkscape:showpageshadow="2"
     inkscape:pageopacity="0.0"
     inkscape:pagecheckerboard="0"
     inkscape:deskcolor="#d1d1d1"
     inkscape:document-units="mm"
     showgrid="false"
     inkscape:zoom="0.63942335"
     inkscape:cx="66.466137"
     inkscape:cy="164.21046"
     inkscape:window-width="897"
     inkscape:window-height="1046"
     inkscape:window-x="1018"
     inkscape:window-y="29"
     inkscape:window-maximized="1"
     inkscape:current-layer="layer1" /><defs
     id="defs2" /><g
     inkscape:label="Layer 1"
     inkscape:groupmode="layer"
     id="layer1"><path
       style="opacity:1;fill:#b70aff;fill-opacity:1;stroke-width:0.264583"
       d="m 18.291102,74.520687 c -0.0382,-22.37383 0.03298,-41.011394 0.158182,-41.416812 0.146188,-0.473377 0.601614,-0.927912 1.272829,-1.270341 1.041817,-0.531495 1.293526,-0.532958 78.015566,-0.4535 l 76.970371,0.07972 0.60262,0.603036 0.60263,0.603036 0.017,37.364671 c 0.009,20.55057 -0.0366,38.871673 -0.10211,40.713553 l -0.11911,3.34887 -3.33747,0.17395 c -1.83561,0.0957 -4.76622,0.28526 -6.51247,0.42129 -1.74625,0.13603 -7.18042,0.3259 -12.07595,0.42192 l -8.90095,0.17459 -0.20036,-3.151 c -0.15528,-2.44205 -0.1016,-22.310913 0.14236,-52.694223 2.6e-4,-0.0364 3.61736,-0.0662 8.03793,-0.0662 7.15155,0 8.07741,-0.0482 8.40052,-0.43728 0.55226,-0.66504 0.64437,-4.51488 0.13708,-5.72901 -0.40738,-0.975 -0.41247,-0.97747 -2.01772,-0.97747 -1.05942,0 -1.64237,-0.113 -1.7061,-0.33072 -0.0532,-0.18191 -0.54118,-1.72163 -1.08431,-3.42162 -0.55707,-1.74363 -0.93156,-3.38354 -0.85916,-3.7623 0.0706,-0.36929 0.0522,-0.62437 -0.0409,-0.56685 -0.0931,0.0575 -0.44277,-0.60092 -0.77713,-1.4632 -0.43623,-1.125 -0.92886,-1.83076 -1.74433,-2.49898 l -1.13642,-0.931206 -5.88725,0.0713 -5.88725,0.0713 -0.57308,1.98438 -0.57307,1.98437 0.75964,1.43286 c 0.4178,0.78807 1.21118,2.69307 1.76308,4.23333 0.55189,1.54027 1.09181,3.01044 1.19983,3.26706 0.18569,0.44117 -0.29141,0.46278 -8.76297,0.39687 l -8.95936,-0.0697 -0.52917,-1.08036 c -0.7255,-1.48119 -1.06665,-2.28449 -2.91215,-6.85714 l -1.60177,-3.96875 -1.43567,-0.7276 -1.43568,-0.727605 h -6.91274 c -3.80201,0 -6.98212,0.06937 -7.0669,0.154165 -0.15332,0.15331 1.58772,5.22103 3.35575,9.76771 0.50929,1.30969 0.92993,2.59124 0.93476,2.84788 0.008,0.43787 -0.52535,0.46234 -8.653223,0.39688 l -8.662,-0.0698 -1.790526,-3.17338 c -0.984789,-1.74536 -2.127808,-3.65036 -2.540039,-4.23334 -0.412232,-0.58297 -0.932852,-1.41713 -1.156933,-1.8537 -0.224081,-0.43656 -0.793708,-1.48882 -1.265838,-2.33835 l -0.858417,-1.544602 -2.811806,0.219452 c -3.445365,0.2689 -4.482846,0.26611 -7.777607,-0.021 -2.307328,-0.20104 -2.640785,-0.174301 -3.108854,0.24929 -1.057777,0.95728 -0.732713,2.26576 1.952017,7.85742 0.95818,1.99567 1.818335,3.93206 1.911458,4.30309 l 0.169312,0.67459 -8.785807,-0.0697 -8.785806,-0.0697 -3.035901,-5.95312 c -1.927367,-3.77939 -3.292673,-6.14619 -3.739118,-6.48187 -0.669549,-0.50342 -1.039222,-0.52436 -7.720901,-0.43729 -3.859725,0.0503 -7.059757,0.13187 -7.111182,0.18127 -0.05143,0.0494 0.103614,1.06262 0.34453,2.2516 0.665776,3.28573 1.562084,5.19764 3.34605,7.13744 0.859264,0.93432 1.562296,1.76968 1.562296,1.85637 0,0.16525 -2.628622,1.31331 -3.006979,1.31331 -0.120242,0 -0.578299,0.25611 -1.017905,0.56914 -0.996254,0.70939 -1.782503,2.39387 -1.790139,3.83522 -0.0049,0.92818 0.138174,1.22349 0.929439,1.91823 l 0.935247,0.82116 h 5.547045 5.547042 v 27.91355 27.913529 H 32.247873 18.360559 Z m 39.878345,19.03803 c -0.190814,-20.57594 -0.0937,-33.51419 0.254172,-33.86205 0.08771,-0.0877 16.885488,-0.21187 37.328399,-0.27591 l 37.168922,-0.11644 -0.0674,27.87479 -0.0674,27.874793 -37.208137,0.0613 -37.208151,0.0613 z"
       id="path191" /></g></svg>
