<?xml version="1.0" encoding="UTF-8" standalone="no"?>
<!-- Created with Inkscape (http://www.inkscape.org/) -->

<svg
   width="157.65065mm"
   height="83.94249mm"
   viewBox="0 0 157.65065 83.94249"
   version="1.1"
   id="svg5"
   xml:space="preserve"
   inkscape:version="1.2.2 (b0a8486541, 2022-12-01)"
   sodipodi:docname="filmvisarna-logo-purple.svg"
   inkscape:export-filename="filmvisarna-logo-purple.svg"
   inkscape:export-xdpi="96"
   inkscape:export-ydpi="96"
   xmlns:inkscape="http://www.inkscape.org/namespaces/inkscape"
   xmlns:sodipodi="http://sodipodi.sourceforge.net/DTD/sodipodi-0.dtd"
   xmlns="http://www.w3.org/2000/svg"
   xmlns:svg="http://www.w3.org/2000/svg"><sodipodi:namedview
     id="namedview7"
     pagecolor="#ffffff"
     bordercolor="#000000"
     borderopacity="0.25"
     inkscape:showpageshadow="2"
     inkscape:pageopacity="0.0"
     inkscape:pagecheckerboard="0"
     inkscape:deskcolor="#d1d1d1"
     inkscape:document-units="mm"
     showgrid="false"
     inkscape:zoom="0.76969697"
     inkscape:cx="390.41339"
     inkscape:cy="561.25984"
     inkscape:window-width="897"
     inkscape:window-height="1046"
     inkscape:window-x="1018"
     inkscape:window-y="29"
     inkscape:window-maximized="1"
     inkscape:current-layer="layer1" /><defs
     id="defs2" /><g
     inkscape:label="Layer 1"
     inkscape:groupmode="layer"
     id="layer1"
     transform="translate(-23.772784,-13.896385)"><path
       style="fill:#b70aff;fill-opacity:1;stroke-width:0.264583"
       d="m 23.783105,57.074895 c -0.0382,-22.373828 0.03298,-41.011393 0.158182,-41.416812 0.146188,-0.473377 0.601614,-0.927912 1.272829,-1.27034 1.041817,-0.531496 1.293527,-0.532959 78.015574,-0.453501 l 76.97038,0.07972 0.60262,0.603036 0.60262,0.603035 0.017,37.364673 c 0.009,20.550571 -0.0366,38.871665 -0.10212,40.713544 l -0.11911,3.348871 -3.33746,0.173952 c -1.83561,0.09568 -4.76622,0.285256 -6.51247,0.421291 -1.74625,0.136033 -7.18043,0.325898 -12.07596,0.421921 l -8.90095,0.174588 -0.20036,-3.150997 c -0.15528,-2.442057 -0.1016,-22.310916 0.14236,-52.694227 2.7e-4,-0.03638 3.61736,-0.06615 8.03793,-0.06615 7.15155,0 8.07742,-0.04819 8.40052,-0.437279 0.55226,-0.665036 0.64438,-4.514871 0.13708,-5.729001 -0.40738,-0.975003 -0.41247,-0.97747 -2.01772,-0.97747 -1.05943,0 -1.64238,-0.113005 -1.7061,-0.330729 -0.0532,-0.181901 -0.54118,-1.721626 -1.08431,-3.421612 -0.55707,-1.743631 -0.93157,-3.383543 -0.85916,-3.762306 0.0706,-0.369282 0.0522,-0.624363 -0.0409,-0.566847 -0.0931,0.05752 -0.44277,-0.600922 -0.77713,-1.463196 -0.43623,-1.125005 -0.92886,-1.830761 -1.74434,-2.498981 l -1.13641,-0.93121 -5.88726,0.07129 -5.88725,0.07129 -0.57307,1.984375 -0.57308,1.984375 0.75964,1.432855 c 0.4178,0.788071 1.21119,2.693071 1.76308,4.233334 0.55189,1.540262 1.09182,3.010437 1.19983,3.267053 0.1857,0.441174 -0.29141,0.462782 -8.76297,0.396875 l -8.95936,-0.0697 -0.52916,-1.08036 c -0.7255,-1.481193 -1.06665,-2.284496 -2.91215,-6.85714 l -1.60177,-3.96875 -1.43568,-0.727604 -1.43567,-0.727604 h -6.91275 c -3.80201,0 -6.98212,0.06937 -7.06691,0.154163 -0.15331,0.153316 1.58774,5.221035 3.35577,9.767712 0.50929,1.309688 0.92993,2.591236 0.93476,2.847886 0.008,0.437862 -0.52536,0.462335 -8.65323,0.396875 l -8.662006,-0.06976 -1.790526,-3.173383 c -0.98479,-1.745361 -2.127808,-3.650361 -2.54004,-4.233333 -0.412231,-0.582973 -0.932852,-1.417138 -1.156932,-1.853701 -0.224081,-0.436562 -0.793708,-1.488821 -1.265839,-2.338352 l -0.858416,-1.544602 -2.811807,0.219454 c -3.445364,0.268901 -4.482846,0.266104 -7.777607,-0.02097 -2.307328,-0.201042 -2.640785,-0.174303 -3.108854,0.249293 -1.057778,0.957276 -0.732713,2.265753 1.952016,7.857418 0.958181,1.995667 1.818336,3.932054 1.911459,4.303083 l 0.169312,0.674597 -8.785807,-0.06975 -8.785807,-0.06975 -3.032982,-5.953125 C 56.136541,25.688697 54.5702,22.890729 54.323923,22.745208 54.077646,22.599687 53.79119,22.361562 53.687352,22.216041 c -0.171427,-0.240239 -14.206427,-0.231512 -14.456789,0.009 -0.05143,0.0494 0.103613,1.062618 0.344531,2.251596 0.665774,3.285731 1.562085,5.197645 3.34605,7.137438 0.859262,0.934317 1.562295,1.769683 1.562295,1.856367 0,0.16525 -2.628621,1.313316 -3.006978,1.313316 -0.120244,0 -0.578301,0.256112 -1.017905,0.569137 -0.996255,0.709397 -1.782505,2.393872 -1.790139,3.835226 -0.0049,0.928173 0.138173,1.223489 0.929437,1.918229 l 0.935248,0.821158 h 5.547044 5.547043 V 69.841041 97.754583 H 37.739876 23.852562 Z m 39.878348,19.038033 c -0.190815,-20.575939 -0.0937,-33.514189 0.254172,-33.862057 0.08771,-0.08771 16.885488,-0.211868 37.328405,-0.275911 l 37.16893,-0.116437 -0.0674,27.87479 -0.0674,27.874794 -37.20815,0.06127 -37.208153,0.06127 z"
       id="path928"
       inkscape:export-filename="./path928.svg"
       inkscape:export-xdpi="96"
       inkscape:export-ydpi="96" /></g></svg>
